<svg xmlns="http://www.w3.org/2000/svg" viewBox="0 0 200 200" width="200" height="200">
  <!-- Background -->
  <circle cx="100" cy="100" r="100" fill="#2c3e50"/>
  <!-- Letter T -->
  <text x="30" y="110" font-family="Arial, sans-serif" font-size="80" fill="#ffffff">T</text>
  <!-- Music Note -->
  <path d="M 145,120 C 140,120 140,90 130,90 C 120,90 120,110 110,110 C 100,110 100,90 90,90 C 80,90 80,110 70,110 C 60,110 60,80 50,80 C 40,80 40,100 30,100 C 20,100 20,70 10,70 C 5,70 5,110 0,110 L 0,140 C 5,140 5,180 10,180 C 20,180 20,150 30,150 C 40,150 40,170 50,170 C 60,170 60,140 70,140 C 80,140 80,180 90,180 C 100,180 100,150 110,150 C 120,150 120,170 130,170 C 140,170 140,140 150,140 C 155,140 155,170 160,170 C 165,170 165,140 170,140 C 175,140 175,180 180,180 L 180,110 C 175,110 175,70 170,70 C 160,70 160,100 150,100 C 145,100 145,120 145,120 Z" fill="#e74c3c"/>
</svg>
